<svg id="Calque_1" width="295px" height="130px" data-name="Calque 1" xmlns="http://www.w3.org/2000/svg" viewBox="0 0 546.74 248.9">
  <defs>
    <style>
      .cls-1 {
        fill: #a70415;
      }

      .cls-2 {
        fill: #1e65a7;
      }

      .cls-3 {
        fill: #fcb934;
      }

      .cls-4 {
        fill: #544a0c;
      }

      .cls-5 {
        fill: #1d1d1b;
      }
    </style>
  </defs>
  <title>Plan de travail 1 copie</title>
  <path d="M63.61,152.2a6,6,0,0,1,.32,1.86,6.49,6.49,0,0,1-.32,2.05h-9v5.56H62a6.3,6.3,0,0,1,.32,1.89,6,6,0,0,1-.32,2H54.66v5.8h9.27a6.1,6.1,0,0,1,0,3.9H49.5v-23Z" />
  <path d="M92.4,151.82a12.2,12.2,0,0,1,5.93,1.25,4.51,4.51,0,0,1-1.49,3.52,12.2,12.2,0,0,0-3.76-.64c-3.29,0-5.38,1.69-5.38,7.8s2.09,7.71,5.38,7.71a12.85,12.85,0,0,0,4-.7,4.89,4.89,0,0,1,1.52,3.62,13.3,13.3,0,0,1-6.25,1.24c-6.57,0-10.15-4.16-10.15-11.9S85.83,151.82,92.4,151.82Z" />
  <path d="M135,167.21c0,5.37-3.51,8.41-8.83,8.41s-8.76-3.1-8.76-8.41V152.49a9.13,9.13,0,0,1,2.55-.29,9.47,9.47,0,0,1,2.57.29v15.1a3.34,3.34,0,0,0,3.71,3.71c2.41,0,3.67-1.31,3.67-3.71v-15.1a8.72,8.72,0,0,1,2.51-.29,9.6,9.6,0,0,1,2.58.29Z" />
  <path d="M164.89,152.2c4.19,0,6.7,2.43,6.7,6.43a5.22,5.22,0,0,1-2.51,4.71,5.5,5.5,0,0,1,3.18,5.24c0,4.29-2.77,6.66-7.24,6.66h-9.6v-23Zm-1,9.51c1.74,0,2.61-1.16,2.61-2.92s-.87-2.91-2.61-2.91h-3.32v5.83Zm.16,9.82c2,0,3-1,3-3.07s-1-3.08-3-3.08h-3.48v6.15Z" />
  <path d="M191.81,152.49a9.63,9.63,0,0,1,2.54-.29,10.28,10.28,0,0,1,2.61.29v18.59h9a6.29,6.29,0,0,1,.32,2.08,7.71,7.71,0,0,1-.32,2.08H191.81Z" />
  <path d="M239.15,152.2a6,6,0,0,1,.32,1.86,6.49,6.49,0,0,1-.32,2.05h-9v5.56h7.34a6.3,6.3,0,0,1,.32,1.89,6,6,0,0,1-.32,2H230.2v5.8h9.27a5.75,5.75,0,0,1,.32,1.92,5.49,5.49,0,0,1-.32,2H225v-23Z" />
  <path d="M265.33,163.27a42.8,42.8,0,0,1-1.9-5.37h-.16a56.63,56.63,0,0,1,.32,6.11V175a6.9,6.9,0,0,1-2.29.29,6.45,6.45,0,0,1-2.22-.29V152.49a14.33,14.33,0,0,1,3.29-.29,12.81,12.81,0,0,1,3.19.29l5.34,11.58a46.87,46.87,0,0,1,2,5.73H273s-.29-3.07-.29-6.49V152.49a7.78,7.78,0,0,1,2.32-.29,6.45,6.45,0,0,1,2.22.29V175a13,13,0,0,1-3.22.29,15.13,15.13,0,0,1-3.25-.29Z" />
  <path d="M305.39,151.82a18.9,18.9,0,0,1,6.77,1.09,5.77,5.77,0,0,1-1.29,3.77,18.12,18.12,0,0,0-4.67-.64c-2.77,0-4.09.83-4.09,2.47s2.67,2.17,5.38,3.13,5.66,2.62,5.66,6.82c0,4.64-2.86,7.16-8.69,7.16a17.82,17.82,0,0,1-7.7-1.56,7.12,7.12,0,0,1,1.22-3.91,21.36,21.36,0,0,0,6.12,1c2.55,0,3.71-.83,3.71-2.46,0-1.47-1.45-2.11-3.32-2.75-3.22-1.06-7.6-2-7.6-7.07C296.89,154.67,299.56,151.82,305.39,151.82Z" />
  <path d="M54.54,203.16a21.07,21.07,0,0,1,.72,2.76h.11s.31-1.26.8-2.76L59,195a3.23,3.23,0,0,1,1.17-.18,3.31,3.31,0,0,1,1.22.18l-4.57,13.21a6.12,6.12,0,0,1-1.56.19,5.54,5.54,0,0,1-1.55-.19L49,195a4.27,4.27,0,0,1,1.35-.18,3.91,3.91,0,0,1,1.35.18Z" />
  <path d="M66.45,192.25a4.05,4.05,0,0,1-1.35.18,3.77,3.77,0,0,1-1.35-.18v-2.43a3.77,3.77,0,0,1,1.35-.18,4.05,4.05,0,0,1,1.35.18Zm0,16a3.57,3.57,0,0,1-1.3.19,3.26,3.26,0,0,1-1.3-.19V195a3.42,3.42,0,0,1,1.3-.18,3.75,3.75,0,0,1,1.3.18Z" />
  <path d="M72.84,208.24a3.57,3.57,0,0,1-1.3.19,3.26,3.26,0,0,1-1.3-.19v-19a3.42,3.42,0,0,1,1.3-.18,3.75,3.75,0,0,1,1.3.18Z" />
  <path d="M79.31,208.24a3.57,3.57,0,0,1-1.3.19,3.26,3.26,0,0,1-1.3-.19v-19a3.42,3.42,0,0,1,1.3-.18,3.75,3.75,0,0,1,1.3.18Z" />
  <path d="M85.18,202.44c.2,3.07,1.45,4.05,3.61,4.05a6.3,6.3,0,0,0,3.06-.75,2.61,2.61,0,0,1,.83,1.86,7.71,7.71,0,0,1-4.31,1.08c-4,0-5.87-2.45-5.87-7.12,0-4.87,2.31-7,5.77-7,3.19,0,5.14,1.75,5.14,5.18a10.77,10.77,0,0,1-.29,2.66Zm3.09-5.81c-1.69,0-2.89,1.11-3.09,4h5.55a8.19,8.19,0,0,0,.08-1.16C90.81,197.92,90.19,196.63,88.27,196.63Z" />
  <path d="M104.21,202.44c.21,3.07,1.45,4.05,3.61,4.05a6.3,6.3,0,0,0,3.06-.75,2.61,2.61,0,0,1,.83,1.86,7.71,7.71,0,0,1-4.31,1.08c-4,0-5.87-2.45-5.87-7.12,0-4.87,2.31-7,5.77-7,3.19,0,5.14,1.75,5.14,5.18a11.14,11.14,0,0,1-.28,2.66Zm3.09-5.81c-1.69,0-2.88,1.11-3.09,4h5.56a10.8,10.8,0,0,0,.07-1.16C109.84,197.92,109.22,196.63,107.3,196.63Z" />
  <path d="M118.88,203.55c0,2.35.75,3,2.6,3a7.36,7.36,0,0,0,1.09-.1,3,3,0,0,1,.18,1,2.77,2.77,0,0,1-.13.93,7.51,7.51,0,0,1-1.87.23c-3.2,0-4.47-1.73-4.47-5v-6.89h-2a2.71,2.71,0,0,1-.15-1,2.64,2.64,0,0,1,.15-1h2v-2.34a4.39,4.39,0,0,1,2.6-.52v2.86h3.37a2.44,2.44,0,0,1,.16,1,2.81,2.81,0,0,1-.16,1h-3.37Z" />
  <path d="M133,201.64c0,3.38,1.09,4.85,3.59,4.85a6.68,6.68,0,0,0,2.44-.44,2.7,2.7,0,0,1,.75,1.86,7.11,7.11,0,0,1-3.74.77c-3.79,0-5.71-2.45-5.71-7s1.92-7,5.71-7a6.87,6.87,0,0,1,3.48.64,2.61,2.61,0,0,1-.75,1.86,6.33,6.33,0,0,0-2.29-.39C134,196.71,133,198.29,133,201.64Z" />
  <path d="M147.18,194.6c3.77,0,5,1.67,5,5v8.64a1.94,1.94,0,0,1-1,.19,2.57,2.57,0,0,1-1-.19l-.39-1.65c-.67,1.37-2.1,2.09-4.08,2.09-2.44,0-4-1.42-4-4.31s1.74-4.05,5-4.05a27.36,27.36,0,0,1,3,.16v-1c0-1.75-.68-2.76-2.68-2.76a10.79,10.79,0,0,0-3.48.65,2,2,0,0,1-.6-.78,2.21,2.21,0,0,1-.15-1.08A11.33,11.33,0,0,1,147.18,194.6Zm-.26,7.48c-1.74,0-2.65.67-2.65,2.29s.86,2.33,2.26,2.33c2.05,0,3-1.73,3-3.56v-.91C149,202.18,147.91,202.08,146.92,202.08Z" />
  <path d="M169.7,194.6a3.6,3.6,0,0,1,3.87,3.89v9.75a3.57,3.57,0,0,1-1.3.19,3.26,3.26,0,0,1-1.3-.19V199a2,2,0,0,0-2.26-2.27,3.27,3.27,0,0,0-2.78,1.65v9.9a3.48,3.48,0,0,1-1.27.19,3.26,3.26,0,0,1-1.3-.19V199a2,2,0,0,0-2.26-2.27,3.42,3.42,0,0,0-2.78,1.62v9.93a3.48,3.48,0,0,1-1.27.19,3.26,3.26,0,0,1-1.3-.19V195a3.42,3.42,0,0,1,1.3-.18,3.66,3.66,0,0,1,1.27.18v1.17a4.85,4.85,0,0,1,3.74-1.6,3.48,3.48,0,0,1,3.38,1.88A5.22,5.22,0,0,1,169.7,194.6Z" />
  <path d="M183.53,194.6c3,0,4.89,1.78,4.89,7s-1.92,7-4.89,7a4.19,4.19,0,0,1-3.74-1.67v7.22a4.25,4.25,0,0,1-1.32.16,3.84,3.84,0,0,1-1.27-.16V195a3.46,3.46,0,0,1,1.27-.18,3.81,3.81,0,0,1,1.32.18v1.24A4.16,4.16,0,0,1,183.53,194.6Zm-.91,2.11c-1.81,0-2.83,1.5-2.83,3.25v3.3c0,1.79,1,3.31,2.83,3.31,2.08,0,3.12-1.09,3.12-4.93S184.7,196.71,182.62,196.71Z" />
  <path d="M196.31,194.6c3.77,0,5,1.67,5,5v8.64a2,2,0,0,1-1,.19,2.57,2.57,0,0,1-1-.19l-.39-1.65c-.68,1.37-2.11,2.09-4.08,2.09-2.44,0-4-1.42-4-4.31s1.75-4.05,5-4.05a27,27,0,0,1,3,.16v-1c0-1.75-.67-2.76-2.67-2.76a10.79,10.79,0,0,0-3.48.65,2,2,0,0,1-.6-.78,2.28,2.28,0,0,1-.16-1.08A11.41,11.41,0,0,1,196.31,194.6Zm-.26,7.48c-1.74,0-2.65.67-2.65,2.29s.86,2.33,2.26,2.33c2.05,0,3-1.73,3-3.56v-.91C198.07,202.18,197,202.08,196.05,202.08Z" />
  <path d="M216,194.6a3.07,3.07,0,0,1,0,2l-2.16-.1a4.72,4.72,0,0,1,.73,2.71c0,2.89-1.74,4.64-5.09,4.64a7.83,7.83,0,0,1-1.14-.07,2.24,2.24,0,0,0-.5,1.49c.29,2.38,8.13-.15,8.13,5.16,0,2.53-2.47,4.42-6.67,4.42-3.9,0-5.54-1.53-5.54-3.59a4.35,4.35,0,0,1,2.32-3.56,2,2,0,0,1-.58-1.5,4.6,4.6,0,0,1,1.25-2.86,4.19,4.19,0,0,1-2.36-4.13c0-2.89,1.76-4.64,5.09-4.64a6.22,6.22,0,0,1,2.88.59Zm-8.52,13.83a3.1,3.1,0,0,0-1.2,2.34c0,1.29,1,2.27,3.09,2.27,2.68,0,4.13-.95,4.13-2.32C213.47,208.61,209.78,209.15,207.45,208.43Zm2-12c-1.56,0-2.63.9-2.63,2.84s1.07,2.81,2.63,2.81,2.59-.88,2.59-2.81S211,196.4,209.45,196.4Z" />
  <path d="M229.13,208.24a3.57,3.57,0,0,1-1.3.19,3.44,3.44,0,0,1-1.3-.19V199c0-1.45-.75-2.27-2.41-2.27a3.56,3.56,0,0,0-2.94,1.65v9.9a3.71,3.71,0,0,1-1.3.19,3.23,3.23,0,0,1-1.29-.19V195a3.39,3.39,0,0,1,1.29-.18,3.89,3.89,0,0,1,1.3.18v1.19a5,5,0,0,1,3.92-1.62,3.66,3.66,0,0,1,4,3.89Z" />
  <path d="M234.84,202.44c.21,3.07,1.45,4.05,3.61,4.05a6.3,6.3,0,0,0,3.06-.75,2.66,2.66,0,0,1,.84,1.86,7.73,7.73,0,0,1-4.32,1.08c-4,0-5.86-2.45-5.86-7.12,0-4.87,2.31-7,5.76-7,3.2,0,5.14,1.75,5.14,5.18a11.14,11.14,0,0,1-.28,2.66Zm3.09-5.81c-1.69,0-2.88,1.11-3.09,4h5.56a10.1,10.1,0,0,0,.08-1.16C240.48,197.92,239.85,196.63,237.93,196.63Z" />
  <path class="cls-1" d="M114.78,126.48c409.45-17.65,509.39,16,204.12,28.2,167.56-8.29,158.46-42.37-204.12-28.2" />
  <path class="cls-2" d="M247.71,85.13c-1.89-1.24-1.75-4.16-1.37-6-.69-1.81-1.34-2.22-1.19-4.85.11-1.8-1.11-5.72-1.38-5.76-.5-.07-.43.73-.74,1-2.12,2.16-3.7,3.84-3.48,7-2.38,2.14-3,4.95-2.22,6.44a11.64,11.64,0,0,0,2.34,4.89c.08,5.73,4.29,27.94,5,30.26a62.17,62.17,0,0,1,1.51,6.07c0,.16.28.22.59-.48.6-1.4.93-6.41.93-8.79s0-27.58,0-29.77" />
  <path class="cls-3" d="M270.68,73.11c-.05.48-.08,2.06-.2,2.61s-.53,2.32-.22,3A19.26,19.26,0,0,0,271.52,81c.12.42.28,5,.28,5.48s-.06,4.29-.08,4.91-.1,10.34.06,11.54.44,6.39.46,7.13.14,16,.14,16.3a3.37,3.37,0,0,1-1.92-2,27.84,27.84,0,0,0-.51-2.75c-.18-.22-1.83-7.19-1.92-7.61s-3.84-21.45-3.91-22.64c-.28-4.92.78-13.85,5.61-17.9.65-.54,1-.93.95-.38" />
  <path class="cls-1" d="M296.08,85.64c.63-2.16.16-3,1-3.57s.65-1.57,1.12-2.3a1.09,1.09,0,0,1,1.73-.19c.51.42,1.35,1.22,1.35,2,0,.43.39.69.66,1.19a3.59,3.59,0,0,1,.77,2.42,2.08,2.08,0,0,0,.5,1.65c.51.73,1.32,1.53,1.32,2.11s0,2.26-.08,2.64a7.81,7.81,0,0,1-.31,1.23c-.27,1-.7,2.3-.81,2.72a9,9,0,0,0-.19,1.92c0,1-1.65,17.42-1.82,18.75-.19,1.49-.07,9.58.08,14.18-1.35.27-4-4.21-4.79-10.47s-1.85-29.56-.5-34.23" />
  <path class="cls-4" d="M235.93,64.66a11.43,11.43,0,0,0,.69-1.77c.26-.58,2.78-2.46,4.41-1s2.89,2.56,1.78,3.65-4.62,4-5,4.8-.63,1-.63,1.57c-1.31-.63-3-2.72-2.68-4a14.7,14.7,0,0,1,1.47-3.23" />
  <path class="cls-4" d="M232.27,98.3c.53.82,2.46,4.14,2.09,1.27a19.63,19.63,0,0,0-2.67-7.07c-1-1.8-8.62-14.29-1.34-29.33-1.45-17.54,4-23.81,4.81-24.87s1.49-2.08,2.25-.8,1.87,8.34,5.08,10.47c.21,1.27,1.61,4,1.93,5.42s1.12,4.68.8,5.58a3.36,3.36,0,0,0-.16,2.39c.27.9,3.53,8.34,4.55,10.84s5.29,9.27,5.4,16.74c0,2.56.58,9.34.69,11.16a24.9,24.9,0,0,1,0,4.41c-.13,1,.56,1.79,1.34,1.33s4.95-5.41,2-17.53a137.79,137.79,0,0,0-5.43-17.93,22.41,22.41,0,0,1-1-7.54,8.21,8.21,0,0,1-.53-2.86,6.38,6.38,0,0,0-.8-2.18c-.33-.74-1.45-5.21-1.88-6.48s-3.15-5.53-4.44-6.12c.64-2.39-2.94-12.06-6.15-13.65-2.94-1.46-6.1-1.17-9.63,3.82S224,51.58,225.91,62.21c.3,1.68.85,3.88.37,4.25-1.24,1-4,16.42,6,31.84" />
  <path class="cls-4" d="M256.4,64.7c-.84-7.33-2.78-18.74,1.2-21.82,1.82-9,3.89-11,5.11-11.89.65-.47,3.68-.58,4.45.22.63.65,5.11,4.6,5.58,14,0,.82-.18,1.38.33,1.88.35.35,3.17,3,3.68,3.63A14.67,14.67,0,0,1,278.32,53c3.87,7.8,3.47,18.78,3,20.52a1.89,1.89,0,0,0,.14,1.37,52.67,52.67,0,0,1,2.81,14.76c0,1.37.83,10-5,18.08-1.28-1.12-1.76-5-1.94-5.65a13.2,13.2,0,0,0-.47-1.78A55.65,55.65,0,0,0,281,89.56a11.07,11.07,0,0,0-.11-4.06c-.26-.73-4.67-13.41-4.67-15.37s.15-3.91,2.37-4.78c-.43-3.34-.54-4.64-1.35-6.53s-2-5.51-4.16-6.23a6.62,6.62,0,0,1-3.65-3.33A5.75,5.75,0,0,0,268,47a31.17,31.17,0,0,1-2.81-5.11,2.13,2.13,0,0,1,.08-1.77,3.28,3.28,0,0,0-.11-2.61c-.51-.83-1.46-2.68-2-1.38a36.58,36.58,0,0,0-1.64,9.82c-3.76,2.36-4.49,6.06-4.64,9.72s.26,7.83.26,8.37-.77,1-.8.69" />
  <path class="cls-4" d="M262.93,72.36c-.86-.54-1-3.17-.32-4.51.74-1.52,3.55-2.47,4.06-2.65s1.1-.2,1.36.18a16.34,16.34,0,0,1,1.32,2.05,1.52,1.52,0,0,1-.14,1.56c-.65.7-4.41,2.05-4.79,2.79s-.63,1.11-1.49.58" />
  <path class="cls-4" d="M290.19,92.09C285.09,80,284.76,70.76,288,65.66c-1.2-6.53-.76-22.3,1-24.7s2.85-3.26,4.6-2.39a7,7,0,0,1,3.06,2.94c.22.54.11,1.19,3.29,2.61s5.37,3.91,7.12,8.26,4.27,15.23,4.92,18.17a41,41,0,0,0,2.32,7.52c1.68,3.74,2.42,8,2.17,15.87-.12,4-.32,9.16.55,12.62A3.57,3.57,0,0,1,317,109c-.26.67-.39,3.72-.92,5.89s-1.43,3.48-2.08,3.7-.77.33-1,.76-.89.37-1.24.3c-1.5-.27-3.46-4-2-9,.41-1.41,1.2-.93,1.75-1.86,1.17-2,.37-8.31.29-9.08,0-.38-.85-.88-1.23-2-1-2.76.35-3.91,1.75-6.8,2-4.2-.78-12.32-2.68-16.11C307,69.7,300.68,60,302.68,56.52a4.92,4.92,0,0,0-.12-4.34c-.84-1.7-4-6.22-9.08-7.19-.63-.12-1.06-.19-1.64,1.08-1.42,3.11-2.94,16-.33,18.82-.93,2.34-6.07,10.81-.66,25.68a2.06,2.06,0,0,1-.66,1.52" />
  <path class="cls-5" d="M346.69,70.09c1.48-.2,2.67-1.84,3.45-1.43a7.54,7.54,0,0,0,3.57.63c1.44,0,7.79.1,8.81,1.53.13.17.55,1.11.12,1.29l0,0c-.44.21-.37.5-.08.72s.24.57-.43,1.09c-2.33,1.8-14.17-.36-15.11-.87s-.77-.38-1-1-.38-1.8.7-2" />
  <path class="cls-5" d="M364.78,83.32c-.32-7,6-7,6.24-.57.32,8.32-2.11,32.09-2.11,34.7s-.72,11-.48,12.22.2,3.56-.24,4.15c-.69.91-.74,1.22-1.38.41a3.13,3.13,0,0,1-1-2.36c0-1.14.41-4.32.25-6.11s-.73-12.63-.65-15.88-.57-24.77-.65-26.56" />
  <path class="cls-5" d="M357.46,104.66a13.58,13.58,0,0,1,2.58-.91c.94-.32,1.84-1.12,2.51-.5s1.49,1.77.12,2.85a3.64,3.64,0,0,1-2.37.41c-.61,0-2.66,1.44-3.33.65a1.71,1.71,0,0,1,.49-2.5" />
  <path class="cls-5" d="M357.14,111.8c.59-1.64,2.81-2.82,3.39-3.12a2.87,2.87,0,0,1,2.46.24c.41.44,1.41,2-.35,1.91s-2.6.26-3.07.88-1.26.33-1.35.82-.81,2.24-1.08.36a2.84,2.84,0,0,1,0-1.09" />
  <path class="cls-5" d="M328.56,85.69c1.09-.15,2-1.36,2.54-1.06a5.4,5.4,0,0,0,2.62.47c1.06,0,5.73.07,6.48,1.12.1.13.41.82.09,1h0c-.32.16-.27.38-.06.54s.18.42-.32.8c-1.71,1.32-10.42-.27-11.11-.64s-.57-.28-.73-.76-.27-1.33.52-1.43" />
  <path class="cls-5" d="M341.86,95.42c-.24-5.15,4.44-5.15,4.59-.42.36,11-1.89,23.63-1.89,25.54s-.78,8-.6,9a7.58,7.58,0,0,1,0,3.18c-.31.77-.58,1.37-1.06.77s-.17-1.46-.17-2.3.18-3.2.07-4.52-.54-9.28-.48-11.68-.42-18.21-.48-19.52" />
  <path class="cls-5" d="M336.48,111.66a10.4,10.4,0,0,1,1.9-.67c.68-.24,1.35-.82,1.85-.37s1.09,1.31.08,2.1a2.69,2.69,0,0,1-1.74.3c-.45,0-2,1.06-2.45.48a1.25,1.25,0,0,1,.36-1.84" />
  <path class="cls-5" d="M336.25,117.19a5.21,5.21,0,0,1,2.49-2.29,2.1,2.1,0,0,1,1.81.17c.3.32,1,1.49-.26,1.41s-1.92.19-2.26.64-.92.24-1,.61-.6,1.64-.79.26a1.79,1.79,0,0,1,0-.8" />
  <path class="cls-5" d="M360.36,108.68a5,5,0,0,1,2.84.3c.44.29.85,2-.26,1.88s-3.07.14-3.37.73c-.44.86-.85.42-1.05.68s-1.23,2.59-1.41.41,2.37-3.67,3.25-4" />
  <path class="cls-5" d="M338.61,114.07a3.71,3.71,0,0,1,2.09.21c.32.22.62,1.47-.2,1.38s-2.25.11-2.47.54c-.32.63-.62.31-.77.5s-.91,1.9-1,.3,1.74-2.7,2.38-2.93" />
  <path class="cls-3" d="M218.5,140.24c8.59-8.54,19.3-12.64,44.81-11.48,27.77,1.26,37.49,10.22,42,13s8.31,6.16,12.82,7.42c-7.61-.14-13.1-2.94-17.47-4.34s-20.44-6.58-25.51-6.58-17.9-1.12-19.59-1.4-17.19-1.26-22.27-.28-11.55,2.8-14.79,3.64" />
</svg>