<?xml version="1.0" encoding="UTF-8"?><svg id="Ebene_2" xmlns="http://www.w3.org/2000/svg" viewBox="0 0 381.92 109.69"><defs><style>.cls-1{fill:#80cc28;}.cls-1,.cls-2{stroke-width:0px;}.cls-2{fill:#fff;}</style></defs><path class="cls-1" d="m107.41,79.66c-6.15,14.3-18.35,25.39-33.39,30.04h307.9v-30.04H107.41Z"/><path class="cls-1" d="m96.04,19.74C85.7,7.19,70.45,0,54.21,0,24.32,0,0,24.32,0,54.21c0,14.74,5.82,28.52,16.39,38.82,10.18,9.92,23.61,15.38,37.81,15.38,5.8,0,11.54-.93,17.06-2.76l.24-.08c.48-.16.96-.32,1.4-.48,12.69-4.01,23.33-13.18,29.19-25.16.48-.99.94-2.03,1.39-3.15,3.27-7.13,4.93-14.73,4.93-22.58,0-12.56-4.39-24.8-12.37-34.47Zm5.73,34.47c0,12.71-4.95,24.65-13.93,33.64-8.98,8.98-20.93,13.93-33.63,13.93s-24.04-4.71-32.95-13.28c-9.43-9.06-14.62-21.24-14.62-34.29,0-6.12,1.16-12.09,3.43-17.73,5.84-12.73,16.71-22.81,29.79-27.63,4.64-1.47,9.47-2.21,14.35-2.21,14.35,0,27.78,6.39,36.87,17.52,6.9,8.45,10.7,19.12,10.7,30.05Z"/><path class="cls-1" d="m53.57,54.21c0,12.17,9.9,22.07,22.06,22.07s22.07-9.9,22.07-22.07v-2.78h-22.71v3.42h19.28c-.34,9.98-8.57,18-18.64,18s-18.64-8.36-18.64-18.64,8.36-18.64,18.64-18.64c4.9,0,9.53,1.89,13.04,5.31l.41.4,2.66-2.17-.5-.5c-4.17-4.17-9.71-6.46-15.61-6.46-12.17,0-22.06,9.9-22.06,22.07Z"/><path class="cls-1" d="m330.84,65.84h0c-1.45,0-2.59,1.12-2.59,2.55s1.19,2.6,2.59,2.6,2.54-1.14,2.54-2.6-1.14-2.55-2.54-2.55Z"/><path class="cls-1" d="m150.14,38.89c-3.58-3.6-8.33-5.59-13.37-5.59h0c-10.52,0-19.09,8.58-19.09,19.13s8.38,18.87,19.09,18.87,18.93-8.51,18.93-18.98c0-5.07-1.97-9.84-5.56-13.44Zm-1.05,13.5c0,6.95-5.55,12.61-12.38,12.61s-12.43-5.54-12.43-12.61,5.34-12.77,12.43-12.77,12.38,5.49,12.38,12.77Z"/><path class="cls-1" d="m177.63,36.35h-.01c-2.41-1.81-4.8-2.36-10.24-2.36h-6.65v36.63h6.6v-14.36h1.84c7.62,0,12.55-4.37,12.55-11.13,0-3.44-1.57-6.8-4.09-8.77Zm-2.3,8.61c0,3.52-2.06,5.09-6.68,5.09h-1.31v-9.85h1.1c6.18,0,6.89,2.72,6.89,4.76Z"/><polygon class="cls-1" points="185.56 70.62 206.23 70.62 206.23 64.3 192.16 64.3 192.16 53.82 205.81 53.82 205.81 47.5 192.16 47.5 192.16 40.3 206.23 40.3 206.23 33.99 185.56 33.99 185.56 70.62"/><polygon class="cls-1" points="237.2 57.56 211.58 30.64 211.58 70.62 218.19 70.62 218.19 46.83 243.81 73.75 243.81 33.99 237.2 33.99 237.2 57.56"/><path class="cls-1" d="m269.45,55.78h12.3c-.14,2.5-.55,4.03-1.46,5.5-2.24,3.75-7.41,6.47-12.31,6.47-8.22,0-15.17-6.99-15.17-15.26s7-15.52,15.28-15.52c3.53,0,7.15,1.35,9.71,3.62,1.03.84,1.77,1.66,3.27,3.65l.39.52,2.87-2.22-.4-.51c-4.69-5.97-9.4-8.51-15.73-8.51-10.47,0-18.98,8.49-18.98,18.92s8.55,18.77,18.66,18.77c6.34,0,12.39-3.18,15.41-8.1,1.71-2.77,2.26-5.23,2.26-10.09v-.64h-16.09v3.4Z"/><rect class="cls-1" x="291.47" y="33.99" width="3.55" height="36.63"/><path class="cls-1" d="m319.61,52.86h-.01c-1.66-1.06-2.65-1.58-7.07-3.7-5.01-2.43-5.86-3.86-5.86-6.15,0-3.44,2.56-6.04,5.94-6.04,2.77,0,4.49,1.07,6.37,3.95l.39.6,2.66-2.17-.27-.47c-1.97-3.46-5.2-5.36-9.09-5.36-5.5,0-9.66,3.99-9.66,9.28,0,4.28,1.64,6.34,7.32,9.16l2.98,1.48c1.53.79,2.74,1.43,3.51,1.84,2,1.15,3.1,2.86,3.1,4.8,0,4.23-3.57,7.68-7.95,7.68-3.65,0-5.78-1.62-7.85-5.99l-.28-.59-3.07,1.5.23.56c2.16,5.29,5.85,7.98,10.97,7.98,6.29,0,11.61-5,11.61-10.93,0-3.17-1.34-5.67-3.97-7.42Z"/><path class="cls-1" d="m349.29,67.96c-4.64,0-8.27-3.81-8.27-8.69s3.61-8.79,8.22-8.79c2.72,0,4.66.92,7.13,3.41l1.1,1.1v-4.67l-.24-.19c-2.6-2.06-4.9-2.9-7.93-2.9-6.68,0-11.71,5.22-11.71,12.14s5.14,11.82,11.71,11.82c3.02,0,5.62-1.01,8.21-3.17l.23-.19v-4.87l-1.12,1.29c-2.21,2.52-4.53,3.7-7.31,3.7Z"/><path class="cls-1" d="m377.51,50.57c-1.2-2.02-3.76-3.33-6.51-3.33-2.5,0-4.36.79-5.95,2.57v-19.11h-3.39v39.92h3.39v-11.88c0-5.56,1.86-8.26,5.69-8.26,2.86,0,4.52.96,4.52,5.88v14.26h3.39v-14.26c0-2.74-.34-4.47-1.14-5.79Z"/><path class="cls-2" d="m125.33,86.71h-.02c-2.11,0-4.07.79-5.52,2.22-1.47,1.45-2.28,3.43-2.27,5.57,0,2.14.82,4.11,2.29,5.55,1.45,1.42,3.41,2.2,5.52,2.2h.02c4.38-.01,7.81-3.43,7.8-7.79-.01-4.35-3.44-7.75-7.81-7.75Zm0,13.63c-3.18,0-5.76-2.62-5.77-5.85h0c0-1.58.59-3.05,1.68-4.16,1.08-1.1,2.53-1.71,4.08-1.72h.02c1.54,0,2.99.6,4.07,1.7,1.09,1.1,1.69,2.57,1.7,4.15,0,3.23-2.58,5.87-5.76,5.88h-.01Z"/><path class="cls-2" d="m142.4,87.99c-1.1-.95-2.5-1.07-3.82-1.07h-2.85s.04,15.05.04,15.05h2s-.02-6.38-.02-6.38h1.24c1.58,0,2.86-.47,3.7-1.35.72-.75,1.11-1.8,1.11-2.96,0-.78-.19-2.24-1.41-3.28Zm-4.65,5.68v-4.84s1.01,0,1.01,0c.79-.02,1.43.12,1.93.38.74.38,1.12,1.04,1.12,1.98,0,.78-.25,1.4-.75,1.83-.5.43-1.24.65-2.15.66h-1.15Z"/><polygon class="cls-2" points="147.79 100.03 147.78 94.7 153.58 94.69 153.58 92.78 147.77 92.79 147.76 88.81 153.74 88.8 153.74 86.88 145.76 86.9 145.8 101.94 153.78 101.92 153.77 100.01 147.79 100.03"/><polygon class="cls-2" points="169.79 86.84 167.79 86.85 167.82 97.94 156.35 85.98 156.39 101.92 158.39 101.91 158.36 90.87 169.83 102.82 169.79 86.84"/><rect class="cls-2" x="172.42" y="93.36" width="5.21" height="2" transform="translate(-.23 .43) rotate(-.14)"/><path class="cls-2" d="m185.58,93.2l-1.41-.61c-.55-.24-1.07-.47-1.49-.88-.37-.35-.49-.63-.49-1.14,0-1.24.91-2.08,2.27-2.08h0c.76,0,1.25.25,1.53.46.29.24.61.64.81,1.04l.09.19,1.61-1.07-.08-.15c-.36-.69-.89-1.29-1.5-1.69-.72-.47-1.47-.69-2.44-.69h-.01c-1.21,0-2.29.39-3.07,1.1-.79.72-1.22,1.74-1.22,2.88,0,1.05.32,1.81,1.07,2.53.64.62,1.34.93,1.89,1.19l1.44.67c.73.33,1.31.59,1.71.97.46.42.67.92.67,1.58,0,.73-.24,1.39-.67,1.88-.49.55-1.21.84-2.08.84h-.01c-.83,0-1.45-.24-1.97-.75-.43-.45-.74-1.1-.83-1.76l-.03-.21-1.96.55.04.17c.24,1.07.76,2.05,1.42,2.68.85.83,1.93,1.23,3.31,1.23h.01c2.8,0,4.82-1.99,4.81-4.71,0-1.15-.36-2.03-1.12-2.79-.61-.61-1.37-1.01-2.33-1.42Z"/><path class="cls-2" d="m198.66,86.53h-.02c-2.11,0-4.07.79-5.52,2.22-1.47,1.45-2.28,3.43-2.27,5.57,0,2.14.82,4.11,2.29,5.55,1.45,1.42,3.41,2.2,5.52,2.2h.02c4.38-.01,7.81-3.43,7.8-7.79-.01-4.35-3.44-7.75-7.81-7.75Zm0,13.63c-3.18,0-5.76-2.62-5.77-5.85h0c0-1.58.59-3.05,1.68-4.16,1.08-1.1,2.53-1.71,4.08-1.72h.02c1.54,0,2.99.6,4.07,1.7,1.09,1.1,1.69,2.57,1.7,4.15,0,3.23-2.58,5.87-5.76,5.88h-.01Z"/><path class="cls-2" d="m217.86,86.72l.02,9.18c0,1.22,0,2.48-1.09,3.42-.54.46-1.5.79-2.3.8h0c-.79,0-1.75-.33-2.29-.79-1.1-.93-1.11-2.19-1.11-3.42l-.02-9.18h-2s.02,9.62.02,9.62c0,1.19.12,2.46.97,3.63.95,1.3,2.56,2.04,4.43,2.04h.02c1.87,0,3.49-.76,4.43-2.07.84-1.17.95-2.44.95-3.63l-.02-9.62h-2Z"/><path class="cls-2" d="m231.17,90.94c0-1.43-.64-2.7-1.7-3.4-1.1-.75-2.54-.84-3.67-.84h-2.54s.04,15.05.04,15.05h2s-.02-6.43-.02-6.43h.13s4.42,6.33,4.42,6.33l.06.08h2.44s-4.7-6.58-4.7-6.58c2.13-.3,3.54-1.95,3.53-4.21Zm-3.08-1.94c.73.42,1.07,1.05,1.08,1.99,0,1.59-1.1,2.5-3.04,2.5h-.85s-.01-4.88-.01-4.88h.8c.65,0,1.38.03,2.02.39Z"/><path class="cls-2" d="m245.6,98.18c-.34.34-.9.83-1.64,1.2-.83.43-1.77.67-2.64.67h-.02c-3.94,0-5.72-3.38-5.73-5.78,0-1.6.57-3.1,1.62-4.2,1.06-1.12,2.5-1.73,4.08-1.74h.02c.79,0,1.66.19,2.43.55.63.3,1.33.79,1.86,1.32l.32.32v-2.57s-.08-.06-.08-.06c-1.31-1-2.76-1.48-4.43-1.48h-.02c-4.48.01-7.85,3.38-7.84,7.84.01,4.4,3.35,7.71,7.77,7.71h.02c.93,0,2.75-.2,4.52-1.48l.08-.06v-2.57s-.32.32-.32.32Z"/><polygon class="cls-2" points="250.53 99.77 250.52 94.45 256.33 94.43 256.32 92.52 250.52 92.53 250.51 88.55 256.49 88.54 256.48 86.62 248.5 86.64 248.54 101.68 256.52 101.66 256.52 99.75 250.53 99.77"/><path class="cls-2" d="m271.8,93.89v1.91s4.35-.01,4.35-.01c-.07.81-.33,1.43-.55,1.81-.82,1.46-2.48,2.37-4.32,2.38h-.01c-1.41,0-2.83-.53-3.88-1.46-.86-.75-1.88-2.12-1.89-4.37,0-1.62.57-3.11,1.61-4.19,1.06-1.1,2.55-1.71,4.19-1.71h.02c1.33,0,2.45.39,3.43,1.18.48.39.95.9,1.35,1.48l.12.17,1.49-1.36-.1-.13c-.47-.64-1.12-1.3-1.73-1.77-1.6-1.22-3.37-1.48-4.58-1.48h-.02c-2.16,0-4.14.81-5.59,2.26-1.44,1.45-2.23,3.41-2.23,5.53.01,4.42,3.36,7.75,7.79,7.75h.02c3.13,0,4.85-1.71,5.6-2.73.9-1.23,1.44-3,1.43-4.75v-.54s-6.49.02-6.49.02Z"/><polygon class="cls-2" points="282.91 99.69 282.9 94.36 288.7 94.35 288.7 92.44 282.89 92.45 282.89 88.47 288.87 88.46 288.86 86.54 280.88 86.56 280.92 101.6 288.9 101.58 288.89 99.67 282.91 99.69"/><path class="cls-2" d="m298.52,86.28h-.02c-2.11,0-4.07.79-5.52,2.22-1.47,1.45-2.28,3.43-2.27,5.57,0,2.14.82,4.11,2.29,5.55,1.45,1.42,3.41,2.2,5.52,2.2h.02c4.38-.01,7.81-3.43,7.8-7.79-.01-4.35-3.44-7.75-7.81-7.75Zm0,13.63c-3.18,0-5.76-2.62-5.77-5.85h0c0-1.58.59-3.05,1.68-4.16,1.08-1.1,2.53-1.71,4.08-1.72h.02c1.54,0,2.99.6,4.07,1.7,1.09,1.1,1.69,2.57,1.7,4.15,0,3.23-2.58,5.87-5.76,5.88h-.01Z"/><polygon class="cls-2" points="322.36 86.46 320.36 86.46 320.39 97.55 308.93 85.6 308.97 101.53 310.97 101.53 310.94 90.48 322.4 102.44 322.36 86.46"/><rect class="cls-2" x="325.79" y="86.45" width="2" height="15.04" transform="translate(-.23 .82) rotate(-.14)"/><polygon class="cls-2" points="344.61 86.4 342.61 86.41 342.64 97.5 331.17 85.54 331.21 101.48 333.21 101.47 333.18 90.43 344.65 102.38 344.61 86.4"/><path class="cls-2" d="m349.33,86.39l.03,10.79c0,.86,0,1.75-.49,2.24-.23.23-.58.36-.97.37h0c-.52,0-1.1-.29-1.53-.75l-.16-.17-1.12,1.59.1.11c.67.75,1.59,1.13,2.74,1.13h.01c1.04,0,1.87-.33,2.46-.99.95-1,.95-2.43.94-3.58l-.03-10.74h-2Z"/><path class="cls-2" d="m353.08,101.16l-.11.26h2.21s1.75-4.14,1.75-4.14h6s1.73,4.12,1.73,4.12h2.21s-6.9-16.01-6.9-16.01l-6.88,15.78Zm6.85-11.01l2.2,5.2h-4.41s2.21-5.2,2.21-5.2Z"/><path class="cls-2" d="m375.85,94.14c-.61-.61-1.37-1.01-2.33-1.42l-1.41-.61c-.55-.24-1.07-.47-1.49-.88-.37-.35-.49-.63-.49-1.14,0-1.24.91-2.08,2.27-2.08h0c.76,0,1.25.25,1.52.46.29.24.61.64.81,1.04l.09.19,1.61-1.07-.08-.15c-.36-.69-.89-1.29-1.5-1.69-.72-.48-1.47-.67-2.46-.69-1.21,0-2.29.39-3.07,1.1-.79.72-1.22,1.74-1.22,2.88,0,1.05.32,1.81,1.07,2.53.64.62,1.34.93,1.89,1.19l1.44.67c.73.33,1.31.59,1.71.97.46.42.67.92.67,1.58,0,.73-.24,1.39-.67,1.88-.49.55-1.21.84-2.08.84h-.01c-.83,0-1.45-.24-1.97-.75-.43-.45-.74-1.1-.83-1.76l-.03-.21-1.96.55.04.17c.24,1.07.76,2.05,1.42,2.68.85.83,1.93,1.23,3.31,1.23h.01c2.8,0,4.82-1.99,4.81-4.71,0-1.15-.36-2.03-1.12-2.79Z"/></svg>