<?xml version="1.0" encoding="UTF-8" standalone="no"?>
<svg
   data-name="Layer 1"
   width="312.03159"
   height="364.27148"
   viewBox="0 0 312.0316 364.2715"
   version="1.1"
   id="svg44"
   sodipodi:docname="diversity.svg"
   inkscape:version="1.1.2 (b8e25be833, 2022-02-05)"
   inkscape:export-filename="C:\tmp\diversity.png"
   inkscape:export-xdpi="246.12892"
   inkscape:export-ydpi="246.12892"
   xmlns:inkscape="http://www.inkscape.org/namespaces/inkscape"
   xmlns:sodipodi="http://sodipodi.sourceforge.net/DTD/sodipodi-0.dtd"
   xmlns="http://www.w3.org/2000/svg"
   xmlns:svg="http://www.w3.org/2000/svg">
  <defs
     id="defs48" />
  <sodipodi:namedview
     id="namedview46"
     pagecolor="#ffffff"
     bordercolor="#666666"
     borderopacity="1.0"
     inkscape:pageshadow="2"
     inkscape:pageopacity="0.0"
     inkscape:pagecheckerboard="0"
     showgrid="false"
     inkscape:zoom="1.3812559"
     inkscape:cx="326.87644"
     inkscape:cy="300.45121"
     inkscape:window-width="2560"
     inkscape:window-height="1377"
     inkscape:window-x="1912"
     inkscape:window-y="-718"
     inkscape:window-maximized="1"
     inkscape:current-layer="svg44" />
  <circle
     id="a104c3ba-2391-4ae4-a2ed-0c7a4ec32b98"
     data-name="Ellipse 574"
     cx="122.36725"
     cy="174.94629"
     r="38.272999"
     fill="#d01f26" />
  <path
     d="m 130.28538,202.78253 a 39.2732,39.2732 0 1 1 39.27295,-39.27345 39.31772,39.31772 0 0 1 -39.27295,39.27345 z m 0,-76.54639 a 37.2732,37.2732 0 1 0 37.27295,37.27294 37.31533,37.31533 0 0 0 -37.27295,-37.27294 z"
     fill="#3f3d56"
     id="path18" />
  <path
     d="m 108.10822,156.41858 a 3.37043,3.37043 0 0 1 -2.72744,0.40762 l -30.47672,-7.62692 a 25.16757,25.16757 0 0 1 -22.64732,10.32817 25.10976,25.10976 0 1 1 21.05494,-41.6731 25.215,25.215 0 0 1 6.25518,18.59835 l 28.20517,13.83608 a 3.41658,3.41658 0 0 1 1.74556,4.34444 3.64027,3.64027 0 0 1 -1.40937,1.78536 z"
     fill="#3f3d56"
     id="path20" />
  <circle
     id="bdea7793-cc89-4ee4-bc41-db390ac25cb6"
     data-name="Ellipse 576"
     cx="54.512943"
     cy="134.50148"
     r="11.438"
     fill="#d01f26" />
  <path
     d="m 147.33981,82.783323 a 3.6231,3.6231 0 0 1 -2.334,0.54608 3.41721,3.41721 0 0 1 -3.12915,-3.48326 l 0.0278,-31.41761 A 25.10911,25.10911 0 0 1 131.42607,9.6578627 25.10906,25.10906 0 0 1 171.9327,39.299593 25.206,25.206 0 0 1 155.40057,49.868363 l -6.60228,30.71614 a 3.38239,3.38239 0 0 1 -1.45852,2.19882 z"
     fill="#e6e6e6"
     id="path23" />
  <circle
     id="ac23f470-f1fd-4c0a-b28f-2bfd55c49f5f"
     data-name="Ellipse 577"
     cx="151.23138"
     cy="25.088411"
     r="11.438"
     fill="#cccccc" />
  <path
     d="m 271.76047,157.48008 a 25.20242,25.20242 0 0 1 -22.48431,2.501 25.21057,25.21057 0 0 1 -14.254,-13.48426 l -31.39951,1.02564 a 3.5001,3.5001 0 0 1 -0.95784,-6.8951 l 30.489,-7.57293 a 25.10861,25.10861 0 0 1 35.08509,-19.547 25.11277,25.11277 0 0 1 3.52155,43.97258 z"
     fill="#e6e6e6"
     id="path26" />
  <circle
     id="aced7de5-95df-4d5e-8d90-342903f1c606"
     data-name="Ellipse 578"
     cx="258.05814"
     cy="136.45825"
     r="11.438"
     fill="#cccccc" />
  <path
     d="m 183.15474,257.98265 a 25.10953,25.10953 0 0 1 -28.96581,-40.97274 l -8.59085,-30.21912 0.48074,-0.13668 -0.48074,0.13668 a 3.49978,3.49978 0 0 1 6.45806,-2.59741 l 14.72426,27.75124 a 25.1699,25.1699 0 0 1 22.82955,9.91828 25.11266,25.11266 0 0 1 -6.37416,36.06705 z"
     fill="#3f3d56"
     id="path29" />
  <circle
     id="efff25db-6063-46bc-8769-3c9fa49c679b"
     data-name="Ellipse 579"
     cx="169.50261"
     cy="236.92787"
     r="11.438"
     fill="#d01f26" />
  <path
     d="m 38.7811,277.04479 a 25.12,25.12 0 1 1 1.94188,-40.76711 l 27.24284,-15.6459 a 3.49991,3.49991 0 0 1 4.0832,5.63759 l -23.36591,21.00118 a 25.19564,25.19564 0 0 1 -9.902,29.77424 z"
     fill="#e6e6e6"
     id="path32" />
  <circle
     id="b7a6057d-d1c4-409a-903f-7471ccbd4961"
     data-name="Ellipse 584"
     cx="24.355434"
     cy="256.45322"
     r="11.438"
     fill="#cccccc" />
  <circle
     cx="252.47484"
     cy="296.16901"
     r="43.067329"
     fill="#2f2e41"
     id="circle96" />
  <rect
     x="61.731346"
     y="418.99408"
     width="13.08374"
     height="23.44171"
     transform="rotate(-31.43113)"
     fill="#2f2e41"
     id="rect98" />
  <rect
     x="35.563881"
     y="418.99402"
     width="13.08373"
     height="23.44171"
     transform="rotate(-31.43113)"
     fill="#2f2e41"
     id="rect100" />
  <ellipse
     cx="63.912018"
     cy="442.70831"
     rx="10.90314"
     ry="4.0886798"
     transform="rotate(-31.43113)"
     fill="#2f2e41"
     id="ellipse102" />
  <ellipse
     cx="37.744499"
     cy="442.16321"
     rx="10.90314"
     ry="4.0886798"
     transform="rotate(-31.43113)"
     fill="#2f2e41"
     id="ellipse104" />
  <ellipse
     cx="-42.773148"
     cy="341.84549"
     rx="7.5005498"
     ry="23.892441"
     transform="rotate(-44.9779)"
     fill="#2f2e41"
     id="ellipse106" />
  <ellipse
     cx="65.471161"
     cy="426.57578"
     rx="7.5005498"
     ry="23.892441"
     transform="rotate(-34.77479)"
     fill="#2f2e41"
     id="ellipse108" />
  <circle
     cx="239.28685"
     cy="284.0658"
     r="14.71921"
     fill="#ffffff"
     id="circle110" />
  <circle
     cx="234.28685"
     cy="279.0658"
     r="4.9064298"
     fill="#3f3d56"
     id="circle112" />
  <path
     d="m 220.33254,308.61893 c -2.79112,4.573 0.92772,10.75961 8.30629,13.81815 7.37857,3.05854 15.62275,1.83086 18.41387,-2.74214 v 0 l 0.01,-0.0163 c 2.78393,-4.576 -2.62325,-7.99955 -10.00454,-11.05358 -7.38129,-3.05403 -13.9417,-4.5821 -16.72553,-0.006 z"
     fill="#ffffff"
     id="path114" />
  <path
     d="m 238.02406,242.09274 c 3.84558,-15.487 20.82056,-24.60077 37.91474,-20.35617 17.09418,4.2446 27.83429,20.24029 23.9887,35.72729 -3.84559,15.487 -16.60394,15.537 -33.69812,11.29236 -17.09418,-4.24464 -32.0509,-11.17645 -28.20532,-26.66348 z"
     fill="#e6e6e6"
     id="path116" />
</svg>
