<?xml version="1.0" encoding="UTF-8" standalone="no"?>
<svg
   data-name="Layer 1"
   width="1047.79529"
   height="450.30891"
   viewBox="0 0 1047.79529 450.30891"
   version="1.1"
   id="svg336"
   sodipodi:docname="geocity-in-one-image.svg"
   inkscape:version="1.1.2 (b8e25be833, 2022-02-05)"
   xmlns:inkscape="http://www.inkscape.org/namespaces/inkscape"
   xmlns:sodipodi="http://sodipodi.sourceforge.net/DTD/sodipodi-0.dtd"
   xmlns="http://www.w3.org/2000/svg"
   xmlns:svg="http://www.w3.org/2000/svg">
  <defs
     id="defs340">
    <rect
       x="33.960949"
       y="14.554692"
       width="182.49486"
       height="47.286479"
       id="rect6397" />
    <rect
       x="33.960949"
       y="14.554692"
       width="182.49486"
       height="47.28648"
       id="rect6397-7" />
    <rect
       x="33.960949"
       y="14.554692"
       width="182.49486"
       height="47.28648"
       id="rect6397-7-0" />
  </defs>
  <sodipodi:namedview
     id="namedview338"
     pagecolor="#ffffff"
     bordercolor="#666666"
     borderopacity="1.0"
     inkscape:pageshadow="2"
     inkscape:pageopacity="0.0"
     inkscape:pagecheckerboard="0"
     showgrid="false"
     inkscape:zoom="1.4428336"
     inkscape:cx="500.05765"
     inkscape:cy="159.40854"
     inkscape:window-width="2560"
     inkscape:window-height="1377"
     inkscape:window-x="1912"
     inkscape:window-y="-718"
     inkscape:window-maximized="1"
     inkscape:current-layer="svg336" />
  <path
     d="m 387.28693,117.79285 -0.58549,-0.94816 q 1.29855,-0.95528 2.57829,-1.93792 l 0.603,0.93532 q -1.28818,0.9896 -2.5958,1.95076 z"
     fill="#cccccc"
     id="path2"
     style="stroke-width:0.547296" />
  <path
     d="m 120.10674,180.37753 q -0.43893,-1.65091 -0.84754,-3.31605 l 1.012,-0.29595 q 0.40564,1.65342 0.84165,3.29315 z"
     fill="#cccccc"
     id="path6"
     style="stroke-width:0.547296" />
  <path
     d="m 435.2194,61.32627 -0.9111,-0.56454 q 0.77195,-1.48506 1.51692,-2.98854 l 0.92158,0.54388 q -0.74989,1.51394 -1.5274,3.0092 z"
     fill="#cccccc"
     id="path12"
     style="stroke-width:0.547296" />
  <path
     d="m 129.85038,62.086871 -0.94575,-0.49195 q 0.6791,-1.55499 1.38647,-3.09213 l 0.93629,0.51317 q -0.70241,1.52693 -1.37701,3.07091 z"
     fill="#cccccc"
     id="path14"
     style="stroke-width:0.547296" />
  <path
     d="m 234.00453,78.137451 h -9.69109 v 89.486559 a 7.8672112,8.587439 0 0 1 -7.85763,8.57698 H 57.993503 v 7.71929 a 8.9179499,9.7343707 0 0 0 8.90532,9.72059 H 234.00453 a 8.9179499,9.7343707 0 0 0 8.90532,-9.72059 V 87.858031 a 8.9179447,9.734365 0 0 0 -8.90532,-9.72058 z"
     fill="#f2f2f2"
     id="path20"
     style="stroke-width:0.547296" />
  <path
     d="M 216.45581,61.841171 H 49.350103 a 8.9179447,9.734365 0 0 0 -8.90532,9.72059 v 96.062249 a 8.9179499,9.7343707 0 0 0 8.90532,9.72058 H 216.45581 a 8.9179499,9.7343707 0 0 0 8.90532,-9.72058 V 71.561761 a 8.9179447,9.734365 0 0 0 -8.90532,-9.72059 z m 7.85763,105.782839 a 7.8672112,8.587439 0 0 1 -7.85763,8.57698 H 49.350103 a 7.8672112,8.587439 0 0 1 -7.85764,-8.57698 V 71.561761 a 7.8672112,8.587439 0 0 1 7.85764,-8.57699 H 216.45581 a 7.8672112,8.587439 0 0 1 7.85763,8.57699 z"
     fill="#3f3d56"
     id="path22"
     style="stroke-width:0.547296" />
  <path
     d="m 203.85269,132.74426 h -58.67035 a 4.1907389,4.5743928 0 1 1 0,-9.14878 h 58.67035 a 4.1907389,4.5743928 0 0 1 0,9.14878 z"
     fill="#cccccc"
     id="path24"
     style="stroke-width:0.547296" />
  <path
     d="m 167.18372,113.30309 h -22.00138 a 4.1907389,4.5743928 0 1 1 0,-9.14878 h 22.00138 a 4.1907389,4.5743928 0 0 1 0,9.14878 z"
     fill="#cccccc"
     id="path26"
     style="stroke-width:0.547296" />
  <path
     d="M 118.75921,155.61623 H 65.327293 a 4.4576785,4.8657702 0 0 1 -4.45266,-4.8603 V 86.142641 a 4.4576785,4.8657702 0 0 1 4.45266,-4.8603 h 53.431917 a 4.4576785,4.8657702 0 0 1 4.45266,4.8603 v 64.613289 a 4.4576785,4.8657702 0 0 1 -4.45266,4.8603 z"
     fill="#d01f25"
     id="path28"
     style="stroke-width:0.547296" />
  <path
     d="m 534.75662,74.8018 h -8.41296 v 29.91653 a 8.9179499,9.7343707 0 0 1 -8.90531,9.72058 H 307.40902 v 4.39142 a 9.9620254,10.874029 0 0 0 9.95301,10.86418 h 217.39459 a 9.9620254,10.874029 0 0 0 9.953,-10.86418 V 85.66598 a 9.9620254,10.874029 0 0 0 -9.953,-10.86418 z"
     fill="#f2f2f2"
     id="path38"
     style="stroke-width:0.547296" />
  <path
     d="M 517.43835,60.6898 H 300.04377 a 9.9620254,10.874029 0 0 0 -9.95301,10.86419 v 33.16434 a 9.9620254,10.874029 0 0 0 9.95301,10.86419 h 217.39458 a 9.9620254,10.874029 0 0 0 9.95299,-10.86419 V 71.55399 A 9.9620254,10.874029 0 0 0 517.43835,60.6898 Z m 8.90531,44.02853 a 8.9179499,9.7343707 0 0 1 -8.90531,9.72059 H 300.04377 a 8.9179499,9.7343707 0 0 1 -8.90532,-9.72059 V 71.55399 a 8.9179447,9.734365 0 0 1 8.90532,-9.72059 h 217.39458 a 8.9179447,9.734365 0 0 1 8.90531,9.72059 z"
     fill="#3f3d56"
     id="path40"
     style="stroke-width:0.547296" />
  <path
     d="M 338.19602,69.84016 A 16.762955,18.297571 0 1 0 354.95897,88.13773 16.782165,18.318539 0 0 0 338.19602,69.84016 Z"
     fill="#d01f25"
     id="path42"
     style="stroke-width:0.547296" />
  <path
     d="M 491.8593,103.57635 H 371.8994 a 4.1907409,4.574395 0 1 1 0,-9.14879 h 119.9599 a 4.1907409,4.574395 0 0 1 0,9.14879 z"
     fill="#cccccc"
     id="path44"
     style="stroke-width:0.547296" />
  <path
     d="M 431.61743,84.13518 H 371.8994 a 4.1907409,4.574395 0 1 1 0,-9.14879 h 59.71803 a 4.1907409,4.574395 0 0 1 0,9.14879 z"
     fill="#cccccc"
     id="path46"
     style="stroke-width:0.547296" />
  <path
     id="b075a903-93c9-45c1-bbfc-445555d45864-852"
     data-name="Path 395"
     d="m 337.05928,96.13837 a 1.9969185,2.1797325 0 0 1 -1.20134,-0.43581 l -0.0215,-0.0176 -4.52487,-3.77827 a 2.0108268,2.194914 0 0 1 2.44687,-3.48382 l 2.93084,2.45326 6.92572,-9.86255 a 2.0099831,2.1939931 0 0 1 2.81808,-0.40631 l 5.3e-4,4.8e-4 -0.043,0.0651 0.0442,-0.0651 a 2.012398,2.1966291 0 0 1 0.3718,3.07668 l -8.1462,11.59538 a 2.011167,2.1952854 0 0 1 -1.5994,0.85598 z"
     fill="#ffffff"
     style="stroke-width:0.547296" />
  <path
     d="m 703.16596,118.04004 -0.5854,-0.94816 q 1.2985,-0.95528 2.5782,-1.93792 l 0.603,0.93532 q -1.2881,0.9896 -2.5958,1.95076 z"
     fill="#cccccc"
     id="path2-6"
     style="stroke-width:0.547296" />
  <path
     d="m 751.09846,61.573464 -0.9111,-0.56454 q 0.772,-1.48506 1.5169,-2.98854 l 0.9216,0.54388 q -0.7499,1.51394 -1.5274,3.0092 z"
     fill="#cccccc"
     id="path12-0"
     style="stroke-width:0.547296" />
  <path
     d="m 850.63566,75.048994 h -8.4129 v 29.916526 a 8.9179499,9.7343707 0 0 1 -8.9053,9.72058 H 623.2881 v 4.39142 a 9.9620254,10.874029 0 0 0 9.95301,10.86418 h 217.39455 a 9.9620254,10.874029 0 0 0 9.953,-10.86418 V 85.913174 a 9.9620254,10.874029 0 0 0 -9.953,-10.86418 z"
     fill="#f2f2f2"
     id="path38-9"
     style="stroke-width:0.547296" />
  <path
     d="M 833.31746,60.936994 H 615.92285 a 9.9620254,10.874029 0 0 0 -9.95301,10.86419 v 33.164336 a 9.9620254,10.874029 0 0 0 9.95301,10.86419 h 217.39461 a 9.9620254,10.874029 0 0 0 9.953,-10.86419 V 71.801184 a 9.9620254,10.874029 0 0 0 -9.953,-10.86419 z m 8.9053,44.028526 a 8.9179499,9.7343707 0 0 1 -8.9053,9.72059 H 615.92285 a 8.9179499,9.7343707 0 0 1 -8.90532,-9.72059 V 71.801184 a 8.9179447,9.734365 0 0 1 8.90532,-9.72059 h 217.39461 a 8.9179447,9.734365 0 0 1 8.9053,9.72059 z"
     fill="#3f3d56"
     id="path40-5"
     style="stroke-width:0.547296" />
  <path
     d="m 654.0751,70.087354 a 16.762955,18.297571 0 1 0 16.76296,18.29757 16.782165,18.318539 0 0 0 -16.76296,-18.29757 z"
     fill="#d01f25"
     id="path42-5"
     style="stroke-width:0.547296" />
  <path
     d="m 807.73836,103.82354 h -119.9599 a 4.1907409,4.574395 0 1 1 0,-9.148786 h 119.9599 a 4.1907409,4.574395 0 0 1 0,9.148786 z"
     fill="#cccccc"
     id="path44-6"
     style="stroke-width:0.547296" />
  <path
     d="m 747.49646,84.382374 h -59.718 a 4.1907409,4.574395 0 1 1 0,-9.14879 h 59.718 a 4.1907409,4.574395 0 0 1 0,9.14879 z"
     fill="#cccccc"
     id="path46-9"
     style="stroke-width:0.547296" />
  <path
     id="b075a903-93c9-45c1-bbfc-445555d45864-852-0"
     data-name="Path 395"
     d="m 652.93836,96.385564 a 1.9969185,2.1797325 0 0 1 -1.20134,-0.43581 l -0.0215,-0.0176 -4.52487,-3.77827 a 2.0108268,2.194914 0 0 1 2.44687,-3.48382 l 2.93084,2.45326 6.92572,-9.86255 a 2.0099831,2.1939931 0 0 1 2.81808,-0.40631 l 5.3e-4,4.8e-4 -0.043,0.0651 0.0442,-0.0651 a 2.012398,2.1966291 0 0 1 0.3718,3.07668 l -8.1462,11.59538 a 2.011167,2.1952854 0 0 1 -1.5994,0.85598 z"
     fill="#ffffff"
     style="stroke-width:0.547296" />
  <g
     id="g46424"
     transform="translate(-43.664077,69.308059)">
    <path
       d="M 999.53638,317.71927 H 820.2365 a 2.4902406,2.4902406 0 0 1 -2.48734,-2.48734 V 201.9354 a 2.4901233,2.4901233 0 0 1 2.48734,-2.48734 h 179.29988 a 2.490237,2.490237 0 0 1 2.48732,2.48734 v 113.29653 a 2.4903472,2.4903472 0 0 1 -2.48732,2.48734 z"
       fill="#e4e4e4"
       id="path18-5"
       style="stroke-width:0.355334" />
    <path
       d="m 836.72549,213.17733 a 1.0671658,1.0671658 0 0 0 -1.066,1.066 v 88.68102 a 1.0671658,1.0671658 0 0 0 1.066,1.066 h 146.32189 a 1.0671658,1.0671658 0 0 0 1.066,-1.066 v -88.68102 a 1.0671658,1.0671658 0 0 0 -1.066,-1.066 z"
       fill="#ffffff"
       id="path20-8"
       style="stroke-width:0.355334" />
    <path
       d="m 984.46865,236.01816 v -5.61954 h -20.69238 v -17.57665 h -5.61957 v 17.57665 h -36.8393 v -17.57665 h -5.61941 v 17.57665 h -56.81986 v -17.57665 h -5.61958 v 17.57665 H 833.6106 v 5.61954 h 19.64795 v 21.85376 H 833.6106 v 5.61953 h 19.64795 V 286.9062 H 833.6106 v 5.61953 h 49.93109 v 11.81977 h 5.61958 v -11.81977 h 26.53671 v 11.81977 h 5.61941 v -11.81977 h 63.15126 V 286.9062 H 921.3174 v -23.41475 h 63.15125 v -5.61953 h -20.69238 v -21.85376 z m -68.77066,0 v 6.86833 h -56.81986 v -6.86833 z m -56.81986,12.48786 h 56.81986 v 9.36589 h -56.81986 z m 0,38.40018 v -23.41475 h 24.66358 v 23.41475 z m 56.81986,0 h -26.5367 v -23.41475 h 26.5367 z m 42.45871,-29.03429 h -36.8393 v -21.85375 h 36.8393 z"
       fill="#e6e6e6"
       id="path22-0"
       style="stroke-width:0.355334" />
    <circle
       cx="918.50775"
       cy="261.39236"
       fill="#d01f25"
       id="circle24"
       style="stroke-width:0.355334"
       r="7.1805139" />
    <circle
       cx="919.36841"
       cy="174.44229"
       fill="#d01f25"
       id="circle28"
       style="stroke-width:0.355334"
       r="44.294231" />
    <polygon
       points="368.323,367.69 446.275,367.221 407.705,434.964 369.135,502.707 329.753,435.433 290.371,368.159 "
       fill="#d01f25"
       id="polygon30"
       transform="matrix(0.35533343,0,0,0.35533343,788.63551,67.818504)" />
    <circle
       cx="919.72394"
       cy="174.16367"
       fill="#ffffff"
       id="circle32"
       style="stroke-width:0.355334"
       r="15.892107" />
  </g>
  <text
     xml:space="preserve"
     id="text6395"
     style="font-style:normal;font-weight:normal;font-size:40px;line-height:1.25;font-family:sans-serif;white-space:pre;shape-inside:url(#rect6397);fill:#000000;fill-opacity:1;stroke:none"><tspan
       x="33.960938"
       y="51.0479"
       id="tspan46471"><tspan
         style="font-size:26.6667px"
         id="tspan46469">Formulaires</tspan></tspan></text>
  <text
     xml:space="preserve"
     id="text6395-1"
     style="font-style:normal;font-weight:normal;font-size:29.3333px;line-height:1.25;font-family:sans-serif;white-space:pre;shape-inside:url(#rect6397-7);fill:#000000;fill-opacity:1;stroke:none"
     transform="translate(265.91261,8.7823005)"><tspan
       x="33.960938"
       y="41.316346"
       id="tspan46473">Traitement</tspan></text>
  <text
     xml:space="preserve"
     id="text6395-1-6"
     style="font-style:normal;font-weight:normal;font-size:29.3333px;line-height:1.25;font-family:sans-serif;white-space:pre;shape-inside:url(#rect6397-7-0);fill:#000000;fill-opacity:1;stroke:none"
     transform="translate(586.39557,2.1796532)"><tspan
       x="33.960938"
       y="41.316346"
       id="tspan46475">Validation</tspan></text>
</svg>
