<?xml version="1.0" encoding="UTF-8" standalone="no"?>
<svg
   data-name="Layer 1"
   width="505.6091"
   height="668.6272"
   viewBox="0 0 505.60909 668.6272"
   version="1.1"
   id="svg104"
   sodipodi:docname="server.svg"
   inkscape:version="1.1.2 (b8e25be833, 2022-02-05)"
   inkscape:export-filename="C:\Users\olm\Downloads\undraw_server_down_s-4-lk.png"
   inkscape:export-xdpi="151.896"
   inkscape:export-ydpi="151.896"
   xmlns:inkscape="http://www.inkscape.org/namespaces/inkscape"
   xmlns:sodipodi="http://sodipodi.sourceforge.net/DTD/sodipodi-0.dtd"
   xmlns="http://www.w3.org/2000/svg"
   xmlns:svg="http://www.w3.org/2000/svg"
   xmlns:rdf="http://www.w3.org/1999/02/22-rdf-syntax-ns#"
   xmlns:cc="http://creativecommons.org/ns#"
   xmlns:dc="http://purl.org/dc/elements/1.1/">
  <defs
     id="defs108" />
  <sodipodi:namedview
     id="namedview106"
     pagecolor="#ffffff"
     bordercolor="#666666"
     borderopacity="1.0"
     inkscape:pageshadow="2"
     inkscape:pageopacity="0.0"
     inkscape:pagecheckerboard="0"
     showgrid="false"
     inkscape:zoom="0.9547975"
     inkscape:cx="559.80457"
     inkscape:cy="349.81239"
     inkscape:window-width="2560"
     inkscape:window-height="1377"
     inkscape:window-x="1912"
     inkscape:window-y="-718"
     inkscape:window-maximized="1"
     inkscape:current-layer="svg104" />
  <title
     id="title2">server down</title>
  <circle
     cx="292.6091"
     cy="213"
     r="213"
     fill="#f2f2f2"
     id="circle4" />
  <path
     d="m 0,51.14237 c 0,77.49789 48.6181,140.20819 108.70073,140.20819"
     fill="#2f2e41"
     id="path6" />
  <path
     d="m 108.70073,191.35056 c 0,-78.36865 54.255,-141.78356 121.30372,-141.78356"
     fill="#d01f25"
     id="path8" />
  <path
     d="m 39.38432,58.16768 c 0,73.61476 31.00285,133.18288 69.31641,133.18288"
     fill="#d01f25"
     id="path10" />
  <path
     d="m 108.70073,191.35056 c 0,-100.13772 62.7103,-181.16788 140.20819,-181.16788"
     fill="#2f2e41"
     id="path12" />
  <path
     d="m 85.8329,192.33905 c 0,0 15.41555,-0.47479 20.06141,-3.783 4.64586,-3.30821 23.713,-7.2585 24.86553,-1.95278 1.15253,5.30572 23.16671,26.38821 5.76263,26.5286 -17.40408,0.14039 -40.43935,-2.711 -45.07627,-5.53549 -4.63692,-2.82449 -5.6133,-15.25733 -5.6133,-15.25733 z"
     fill="#a8a8a8"
     id="path14" />
  <path
     d="m 136.83311,211.28489 c -17.40408,0.14042 -40.43933,-2.71094 -45.07626,-5.53548 -3.53126,-2.151 -4.93843,-9.86945 -5.40926,-13.43043 -0.32607,0.014 -0.51463,0.02 -0.51463,0.02 0,0 0.97638,12.43276 5.61331,15.2573 4.63693,2.82454 27.67217,5.67589 45.07626,5.53547 5.02386,-0.0405 6.7592,-1.82793 6.66391,-4.47526 -0.69798,1.59951 -2.61404,2.59825 -6.35333,2.6284 z"
     opacity="0.2"
     id="path16" />
  <ellipse
     cx="198.60912"
     cy="424.5"
     rx="187"
     ry="25.43993"
     fill="#3f3d56"
     id="ellipse18" />
  <ellipse
     cx="198.60912"
     cy="424.5"
     rx="157"
     ry="21.35866"
     opacity="0.1"
     id="ellipse20" />
  <ellipse
     cx="310.6091"
     cy="645.5"
     rx="170"
     ry="23.127211"
     fill="#3f3d56"
     id="ellipse24" />
  <path
     d="m 309.60911,259 c 0,0 130,-36 138,80 8,116 -107,149 -17,172"
     fill="none"
     stroke="#2f2e41"
     stroke-miterlimit="10"
     stroke-width="2"
     id="path28" />
  <rect
     x="108.60911"
     y="159"
     width="208"
     height="242"
     fill="#2f2e41"
     id="rect56" />
  <rect
     x="87.609108"
     y="135"
     width="250"
     height="86"
     fill="#3f3d56"
     id="rect58" />
  <rect
     x="87.609108"
     y="237"
     width="250"
     height="86"
     fill="#3f3d56"
     id="rect60" />
  <rect
     x="87.609108"
     y="339"
     width="250"
     height="86"
     fill="#3f3d56"
     id="rect62" />
  <rect
     x="271.6091"
     y="150"
     width="16"
     height="16"
     fill="#d01f25"
     opacity="0.4"
     id="rect64" />
  <rect
     x="294.6091"
     y="150"
     width="16"
     height="16"
     fill="#d01f25"
     opacity="0.8"
     id="rect66" />
  <rect
     x="317.6091"
     y="150"
     width="16"
     height="16"
     fill="#d01f25"
     id="rect68" />
  <rect
     x="271.6091"
     y="251"
     width="16"
     height="16"
     fill="#d01f25"
     opacity="0.4"
     id="rect70" />
  <rect
     x="294.6091"
     y="251"
     width="16"
     height="16"
     fill="#d01f25"
     opacity="0.8"
     id="rect72" />
  <rect
     x="317.6091"
     y="251"
     width="16"
     height="16"
     fill="#d01f25"
     id="rect74" />
  <rect
     x="271.6091"
     y="352"
     width="16"
     height="16"
     fill="#d01f25"
     opacity="0.4"
     id="rect76" />
  <rect
     x="294.6091"
     y="352"
     width="16"
     height="16"
     fill="#d01f25"
     opacity="0.8"
     id="rect78" />
  <rect
     x="317.6091"
     y="352"
     width="16"
     height="16"
     fill="#d01f25"
     id="rect80" />
  <circle
     cx="316.6091"
     cy="538"
     r="79"
     fill="#2f2e41"
     id="circle82" />
  <rect
     x="280.6091"
     y="600"
     width="24"
     height="43"
     fill="#2f2e41"
     id="rect84" />
  <rect
     x="328.6091"
     y="600"
     width="24"
     height="43"
     fill="#2f2e41"
     id="rect86" />
  <ellipse
     cx="300.6091"
     cy="643.5"
     rx="20"
     ry="7.5"
     fill="#2f2e41"
     id="ellipse88" />
  <ellipse
     cx="348.6091"
     cy="642.5"
     rx="20"
     ry="7.5"
     fill="#2f2e41"
     id="ellipse90" />
  <circle
     cx="318.6091"
     cy="518"
     r="27"
     fill="#ffffff"
     id="circle92" />
  <circle
     cx="318.6091"
     cy="518"
     r="9"
     fill="#3f3d56"
     id="circle94" />
  <path
     d="m 239.97644,464.53228 c -6.37889,-28.56758 14.01185,-57.43392 45.544,-64.47477 31.53215,-7.04085 62.2651,10.41 68.644,38.9776 6.3789,28.5676 -14.51861,39.10379 -46.05075,46.14464 -31.53214,7.04085 -61.75836,7.92011 -68.13725,-20.64747 z"
     fill="#d01f25"
     id="path96" />
  <ellipse
     cx="153.69476"
     cy="621.44946"
     rx="39.5"
     ry="12.40027"
     transform="rotate(-23.17116)"
     fill="#2f2e41"
     id="ellipse98" />
  <ellipse
     cx="-3.2209992"
     cy="611.93927"
     rx="39.5"
     ry="12.40027"
     transform="rotate(-23.17116)"
     fill="#2f2e41"
     id="ellipse100" />
  <path
     d="m 362.60911,561 c 0,7.732 -19.90861,23 -42,23 -22.09139,0 -43,-14.268 -43,-22 0,-7.732 20.90861,-6 43,-6 22.09139,0 42,-2.732 42,5 z"
     fill="#ffffff"
     id="path102" />
  <metadata
     id="metadata110">
    <rdf:RDF>
      <cc:Work
         rdf:about="">
        <dc:title>server down</dc:title>
      </cc:Work>
    </rdf:RDF>
  </metadata>
</svg>
